The Bourne Ultimatum 2007 BluRay 1080p DTS x264  

Encoded by Tequila-Bob a.k.a. bobnjeff

 
http://photobucket.com/the_bourne_ultimatum_tequila_bob

[img]http://torrent-stats.info/6155/5f4179d2.png[/img]


Source NTSC BluRay Disc


 
http://www.imdb.com/title/tt0440963/

Release Date:3 August 2007 (USA

Rated PG-13 for violence and intense sequences of action

Genres:Action | Adventure | Mystery | Thriller 

Storyline
Bourne is once again brought out of hiding, this time inadvertently by London-based reporter Simon Ross who is trying to unveil Operation Blackbriar--an upgrade to Project Treadstone--in a series of newspaper columns. Bourne sets up a meeting with Ross and realizes instantly they're being scanned. Information from the reporter stirs a new set of memories, and Bourne must finally, ultimately, uncover his dark past whilst dodging The Company's best efforts in trying to eradicate him. 

Cast
Cast overview, first billed only: 
  Matt Damon  ...  Jason Bourne  
  Julia Stiles  ...  Nicky Parsons  
  David Strathairn  ...  Noah Vosen  
  Scott Glenn  ...  Ezra Kramer  
  Paddy Considine  ...  Simon Ross  
  Édgar Ramírez  ...  Paz  
  Albert Finney  ...  Dr. Albert Hirsch  
  Joan Allen  ...  Pam Landy  
  Tom Gallop  ...  Tom Cronin  
  Corey Johnson  ...  Wills  
  Daniel Brühl  ...  Martin Kreutz  
  Joey Ansah  ...  Desh  
  Colin Stinton  ...  Neal Daniels  
  Dan Fredenburgh  ...  Jimmy  
  Lucy Liemann 

Format : Matroska 
File size : 7.96 GiB 
Duration : 1h 55mn 
Overall bit rate : 9 880 Kbps 
Encoded date : UTC 2010-10-30 17:44:21 
Writing application : mkvmerge v4.3.0
Writing library : libebml v1.0.0 + libmatroska v1.0.0 

Video 

Codec ID : V_MPEG4/ISO/AVC 
Duration : 1h 55mn 
Bit rate mode : Variable 
Bit rate : 8 355 Kbps 
Maximum bit rate : 40.0 Mbps 
Width : 1 920 pixels 
Height : 800 pixels 
Display aspect ratio : 2.40:1 
Frame rate : 23.976 fps 
Bits/(Pixel*Frame) : 0.227 
Stream size : 6.58 GiB (83%) 
Writing library : x264 core 98 r1649 c54c47d 
Language : English 


Audio  
Format : DTS 
Duration : 1h 55mn 
Bit rate mode : Constant 
Bit rate : 1 510 Kbps 
Channel(s) : 6 channels 
Channel positions : Front: L C R, Side: L R, LFE 
Sampling rate : 48.0 KHz 
Bit depth : 24 bits 
Video delay : 10ms 
Stream size : 1.22 GiB (15%) 
Title : 3/2+1 
Language : English 

Text #1 
Language : English 

Text #2 
Language : Spanish 

Text #3 
Language : French 

Text #4  
Language : Spanish 

Text #5 

Language : French 

Menu   Chapters 19


[url]http://photobucket.com/the_bourne_ultimatum_tequila_bob[/url]


